<?xml version="1.0" encoding="utf-8"?>
<!-- Generator: Adobe Illustrator 17.1.0, SVG Export Plug-In . SVG Version: 6.00 Build 0)  -->
<!DOCTYPE svg PUBLIC "-//W3C//DTD SVG 1.1//EN" "http://www.w3.org/Graphics/SVG/1.1/DTD/svg11.dtd">
<svg version="1.1" id="Layer_1" xmlns="http://www.w3.org/2000/svg" xmlns:xlink="http://www.w3.org/1999/xlink" x="0px" y="0px"
	 viewBox="0 0 595.3 841.9" enable-background="new 0 0 595.3 841.9" xml:space="preserve">
<g>
	<path fill="#00C7FC" d="M268,415.6c-0.2-7.1-6-12.7-13.2-12.7c-7.1,0-12.9,5.6-13.1,12.7h0v17.3c0,1.9,1,2.2,2.1,0.8c0,0,0,0,0,0
		l0.2-0.2c1.2-1.5,3.1-1.4,4.2,0l0.1,0.1l0.1,0.1c1.2,1.5,3.1,1.5,4.2,0l0.1-0.1l0.1-0.1c1.2-1.5,3.1-1.4,4.3,0l0.1,0.2v0
		c1.2,1.5,3.1,1.5,4.3,0l0,0l0.1-0.2c1.2-1.5,3.1-1.5,4.2,0l0.1,0.1l0.1,0.1c1.2,1.5,2.1,1.1,2.1-0.7L268,415.6L268,415.6z
		 M250.3,416.8c-1.3,0-2.3-1-2.3-2.3c0-1.3,1-2.3,2.3-2.3c1.3,0,2.3,1,2.3,2.3C252.6,415.7,251.6,416.8,250.3,416.8z M259.4,416.8
		c-1.3,0-2.3-1-2.3-2.3c0-1.3,1-2.3,2.3-2.3c1.3,0,2.3,1,2.3,2.3C261.8,415.7,260.7,416.8,259.4,416.8z"/>
	<g>
		<path fill="#FFFFFF" d="M279.3,432.9c-0.9,0-1.5-0.3-2-0.8c-0.5-0.5-0.8-1.2-0.8-2c0-1.9,1.4-3.5,4.3-4.8c0.1-0.9,0.3-2.3,0.5-4
			c0.4-3.6,0.6-5.6,0.7-6.2c0.7-0.4,1.3-0.6,2.1-0.6c0.7,0,1.3,0,1.6,0.1l-1.8,13.6C283.4,431.3,281.9,432.9,279.3,432.9z
			 M278.3,429.8c0,0.6,0.3,0.9,0.8,0.9c0.2,0,0.5-0.1,0.7-0.4c0.2-0.3,0.4-0.8,0.5-1.4l0.2-1.5C279.1,428.2,278.3,429,278.3,429.8z
			 M294.3,427.5l0.8,1.2c-0.2,0.9-0.6,1.6-1,2.2c-0.4,0.6-0.9,1-1.3,1.3c-0.8,0.4-1.6,0.7-2.3,0.7c-1.3,0-2.2-0.4-2.9-1.1
			c-0.6-0.7-0.9-1.7-1-3c0-2-0.2-3.3-0.4-3.8c-0.2-0.5-0.6-0.8-1.3-0.8l0.2-1.8c0.3,0,0.5-0.1,0.7-0.2c0.2-0.1,0.4-0.2,0.6-0.5
			c0.5-0.5,0.9-1.6,1.2-3.4c0.2-1.3,0.6-2.3,1.3-2.9c0.6-0.6,1.4-0.9,2.1-0.9c0.8,0,1.4,0.2,2,0.7c0.6,0.4,0.9,1.2,0.9,2.1
			c0,1.3-0.5,2.4-1.4,3.4c-0.9,0.9-2.2,1.8-3.9,2.6c0.6,0.3,1,0.7,1.3,1.4c0.3,0.6,0.4,1.3,0.5,2c0,0.7,0.1,1.4,0.1,2
			c0.1,1.5,0.5,2.3,1.4,2.3C292.7,430.9,293.6,429.8,294.3,427.5z M292,417.2c-0.1-0.1-0.3-0.2-0.4-0.2c-0.1,0-0.2,0-0.3,0
			c-0.1,0-0.1,0.1-0.2,0.2c-0.1,0.1-0.1,0.1-0.1,0.2c0,0.1-0.1,0.2-0.1,0.3c0,0.1-0.1,0.3-0.1,0.4c0,0.1-0.1,0.3-0.1,0.4
			c0,0.2-0.1,0.5-0.2,0.8c-0.1,0.3-0.2,0.7-0.3,1c1.3-0.9,2-1.7,2-2.6C292.2,417.5,292.1,417.3,292,417.2z"/>
		<path fill="#FFFFFF" d="M305.1,432.8c-1.5,0-2.5-0.5-2.9-1.5c-0.8,1-1.9,1.6-3.2,1.6c-1.3,0-2.4-0.4-3.3-1.3
			c-0.9-0.9-1.3-2-1.3-3.5c0-2.1,0.6-3.8,1.9-5c1.2-1.3,2.8-1.9,4.7-1.9c0,0,0.1,0,0.1,0c0.8,0,1.5,0.1,2.2,0.4
			c0.4-0.3,1-0.4,1.6-0.4c0.6,0,1.1,0.1,1.3,0.2c-0.1,1.2-0.3,2.4-0.5,3.5c-0.2,1.1-0.3,2-0.3,2.4c-0.1,1.1-0.2,1.9-0.2,2.4
			c0,0.6,0.3,1,0.8,1c0.4,0,0.8-0.3,1.3-0.8c0.4-0.5,0.8-1.4,1.2-2.5c0.5,0.4,0.8,0.9,1,1.4c-0.5,1.5-1.1,2.6-1.9,3.2
			C306.7,432.5,305.9,432.8,305.1,432.8z M301.2,423c-1,0-1.8,0.4-2.4,1.2c-0.6,0.8-1,1.9-1.1,3.5c0,0.1,0,0.3,0,0.4
			c0,0.8,0.2,1.4,0.6,1.9c0.4,0.5,0.9,0.7,1.5,0.7c1,0,1.8-0.7,2.3-2.1l0.6-5.2C302.1,423.1,301.7,423,301.2,423z"/>
		<path fill="#FFFFFF" d="M318.3,425.3c1.3,0.9,1.9,2,1.9,3.3c0,1.3-0.5,2.3-1.5,3.1c-1,0.8-2.2,1.2-3.8,1.2c-1,0-1.8-0.2-2.4-0.7
			c-0.6-0.5-1-1.1-1-1.8s0.2-1.3,0.7-1.7c0.5-0.4,1.1-0.7,1.8-0.8c-0.3,0.5-0.5,0.9-0.5,1.4c0,0.4,0.2,0.8,0.5,1.1
			c0.3,0.3,0.7,0.4,1.2,0.4c0.5,0,0.9-0.2,1.2-0.5c0.3-0.3,0.5-0.7,0.5-1.2c0-0.7-0.3-1.4-1-2c-0.4-0.3-0.9-0.7-1.3-1
			c-0.5-0.3-0.7-0.5-0.8-0.5c-0.1,0-0.1-0.1-0.2-0.1c-0.3,0.3-0.7,0.8-1.3,1.4c-0.5,0.6-1,1.1-1.3,1.4c-0.9,1-1.4,1.8-1.5,2.5
			c0,0.1,0,0.4,0,0.7c0,0.4,0.1,0.7,0.3,1.1c0.2,0.4,0.5,0.7,0.8,0.9c0.3,0.2,0.6,0.3,0.9,0.5c0.3,0.1,0.6,0.2,0.8,0.3
			c0.2,0,0.3,0.1,0.3,0.1c0,0.1-0.2,0.2-0.5,0.4c-0.7,0.2-1.3,0.4-2.1,0.4c-0.7,0-1.4-0.3-2.1-0.8c-0.9-0.7-1.4-1.6-1.4-2.8
			c0-0.7,0.2-1.4,0.6-2.1c0.7-1.3,2.2-3,4.6-5.2c-0.6-0.6-0.9-1.2-0.9-1.9c0-0.7,0.3-1.2,0.8-1.7c0.5-0.5,1.1-0.7,1.8-0.7
			c0.6,0,1.2,0.2,1.6,0.7c0.3,0.3,0.5,0.8,0.5,1.3c0,0.5-0.2,1.1-0.5,1.7C316.5,424.3,317.7,424.9,318.3,425.3z M313.1,422.6
			c0.4-0.4,0.6-0.7,0.6-0.9c0-0.4-0.2-0.6-0.5-0.7c-0.4,0-0.6,0.2-0.6,0.7C312.5,422.1,312.7,422.3,313.1,422.6z"/>
		<path fill="#FFFFFF" d="M322.8,421.1c1,0,1.7,0.3,1.8,0.8c0.8-0.5,1.7-0.8,2.9-0.8c1.2,0,2.1,0.5,3,1.4c0.8,0.9,1.3,2.1,1.3,3.3
			c0,0.2,0,0.4,0,0.6c-0.2,2.1-0.9,3.7-2.1,4.8c-1.2,1.1-2.8,1.7-4.8,1.7c-0.4,0-0.9-0.1-1.5-0.2l-0.8,6.6h-3.2
			c1-8.8,1.7-14.8,2.1-18C321.8,421.2,322.3,421.1,322.8,421.1z M328.4,426c0-0.7-0.2-1.3-0.5-1.9c-0.3-0.5-0.8-0.8-1.5-0.8
			c-0.9,0-1.6,0.6-2.1,1.8c-0.3,2.4-0.5,3.8-0.6,4.1c0,0.5,0.1,0.8,0.5,1.1c0.3,0.2,0.7,0.4,1.2,0.4c0.8,0,1.5-0.4,2-1.1
			C328.1,428.7,328.4,427.5,328.4,426z"/>
		<path fill="#FFFFFF" d="M339,426.1c0.5-0.6,0.7-1.2,0.7-1.7c0-0.6-0.1-0.9-0.4-1.1c-0.3-0.2-0.6-0.3-1-0.3c-0.8,0-1.4,0.4-2,1.3
			c-0.6,0.8-0.9,1.8-0.9,3c0,1.2,0.3,2,0.8,2.6c0.6,0.6,1.2,0.9,2.1,0.9c1.2,0,2.4-0.4,3.5-1.3c1.1-0.8,2-1.9,2.7-3.3
			c0.4,0.3,0.7,0.8,1,1.3c-0.5,1.2-1.5,2.4-2.8,3.5c-0.7,0.6-1.5,1-2.4,1.4c-0.9,0.4-1.9,0.5-2.9,0.5c-1.6,0-2.9-0.5-3.8-1.5
			c-1-1.1-1.5-2.4-1.5-4.1c0-1.7,0.6-3.1,1.9-4.3c1.2-1.2,2.7-1.9,4.5-1.9c1.2,0,2.2,0.3,3,0.8c0.8,0.5,1.2,1.3,1.2,2.2
			c0,1.2-0.5,2.2-1.5,3c-1,0.8-2.3,1.3-4.1,1.6l-0.3-1.4C337.8,427.1,338.5,426.7,339,426.1z"/>
		<path fill="#FFFFFF" d="M350.6,424.3c0-0.7-0.3-1.1-1-1.1s-1.2,0.4-1.6,1.3c1.7,1.4,2.6,2.9,2.6,4.6c0,1.2-0.3,2.2-1,2.8
			c-0.7,0.6-1.6,1-2.6,1c-1,0-1.8-0.3-2.3-1c-0.5-0.7-0.7-1.5-0.7-2.5c0-0.3,0-0.5,0-0.7l0.8-7.3c0.6-0.2,1.2-0.3,1.8-0.3
			c1,0,1.5,0.4,1.5,1.1v0c0.6-0.8,1.5-1.1,2.5-1.1c0.7,0,1.3,0.2,1.7,0.5c0.4,0.3,0.6,0.8,0.6,1.3c0,0.5-0.2,1-0.6,1.3
			c-0.4,0.3-0.9,0.5-1.6,0.5c0,0-0.1,0-0.1,0C350.6,424.6,350.6,424.4,350.6,424.3z M347.7,426.2c-0.3,2.3-0.4,3.5-0.4,3.5
			c0,0.7,0.3,1,0.8,1c0.7,0,1.1-0.6,1.1-1.7C349.1,428,348.6,427.1,347.7,426.2z"/>
	</g>
	<g>
		<path fill="#00C7FC" d="M316.6,417.8h-0.8v-4.3h-1.5v-0.7h3.7v0.7h-1.5V417.8z"/>
		<path fill="#00C7FC" d="M322.1,417.8h-2.8v-5h2.8v0.7h-2v1.4h1.9v0.7h-1.9v1.6h2V417.8z"/>
		<path fill="#00C7FC" d="M325.9,417.8l-1.4-4.2h0c0,0.6,0.1,1.2,0.1,1.7v2.4h-0.7v-5h1.1l1.4,4h0l1.4-4h1.2v5h-0.8v-2.5
			c0-0.2,0-0.6,0-1c0-0.4,0-0.6,0-0.7h0l-1.5,4.2H325.9z"/>
		<path fill="#00C7FC" d="M333.7,414.3c0,0.5-0.2,0.9-0.5,1.2c-0.3,0.3-0.8,0.4-1.5,0.4h-0.5v1.9h-0.8v-5h1.4c0.6,0,1.1,0.1,1.4,0.4
			C333.6,413.5,333.7,413.9,333.7,414.3z M331.2,415.3h0.4c0.4,0,0.7-0.1,0.9-0.2c0.2-0.1,0.3-0.4,0.3-0.7c0-0.3-0.1-0.5-0.3-0.6
			c-0.2-0.1-0.4-0.2-0.8-0.2h-0.6V415.3z"/>
		<path fill="#00C7FC" d="M335,417.8v-5h0.8v4.3h2.1v0.7H335z"/>
		<path fill="#00C7FC" d="M342.5,417.8l-0.5-1.4h-1.9l-0.5,1.4h-0.9l1.9-5h0.9l1.9,5H342.5z M341.8,415.7l-0.5-1.4
			c0-0.1-0.1-0.2-0.1-0.4c-0.1-0.2-0.1-0.3-0.1-0.4c-0.1,0.3-0.2,0.6-0.3,0.9l-0.5,1.3H341.8z"/>
		<path fill="#00C7FC" d="M346.2,417.8h-0.8v-4.3h-1.5v-0.7h3.7v0.7h-1.5V417.8z"/>
		<path fill="#00C7FC" d="M351.5,417.8h-2.8v-5h2.8v0.7h-2v1.4h1.9v0.7h-1.9v1.6h2V417.8z"/>
	</g>
</g>
</svg>
