<?xml version="1.0" encoding="utf-8"?>
<!-- Generator: Adobe Illustrator 17.1.0, SVG Export Plug-In . SVG Version: 6.00 Build 0)  -->
<!DOCTYPE svg PUBLIC "-//W3C//DTD SVG 1.1//EN" "http://www.w3.org/Graphics/SVG/1.1/DTD/svg11.dtd">
<svg version="1.1" id="Layer_1" xmlns="http://www.w3.org/2000/svg" xmlns:xlink="http://www.w3.org/1999/xlink" x="0px" y="0px"
	 viewBox="0 0 64 66" enable-background="new 0 0 64 66" xml:space="preserve">
<path fill-rule="evenodd" clip-rule="evenodd" d="M63.8,46.8l-5.1-9.5c0,0,0,0,0,0l-0.4-0.6c-0.2-0.4-0.5-0.6-0.9-0.7
	c-0.4-0.1-0.7,0-1.1,0.2l-0.6,0.4c0,0,0,0,0,0l-9.1,6.1c-0.7,0.4-0.9,1.4-0.5,2.1l0.4,0.5c0.4,0.7,1.3,0.7,2,0.3l5.4-3.7
	C52.6,52.2,44.3,60.2,34,61.1V21h8c1.1,0,2-0.9,2-2c0-1.1-0.9-2-2-2h-8.1c0-0.1,0-0.1,0-0.2c3.6-0.8,6.2-4,6.2-7.8
	c0-4.5-3.6-8.1-8.1-8.1S24,4.5,24,9c0,3.8,2.6,7,6.2,7.8c0,0.1,0,0.1-0.1,0.2H22c-1.1,0-2,0.9-2,2c0,1.1,0.9,2,2,2h8v40.1
	c-10.3-0.9-18.6-8.9-19.9-19.3l5.4,3.7c0.7,0.4,1.6,0.4,2-0.3l0.4-0.5c0.4-0.7,0.2-1.6-0.5-2.1l-9.1-6.1c0,0,0,0,0,0l-0.6-0.4
	C7.3,36,7,35.9,6.6,36c-0.4,0.1-0.7,0.3-0.9,0.7l-0.4,0.6c0,0,0,0,0,0l-5.1,9.5c-0.4,0.7-0.2,1.6,0.5,2.1L1.3,49
	c0.7,0.4,1.5,0,1.9-0.7l3-5.6C8,55.6,19,65.2,32,65.2c13,0,24-9.6,25.8-22.4l3,5.6c0.4,0.7,1.2,1.1,1.9,0.7l0.6-0.2
	C64,48.4,64.2,47.5,63.8,46.8z M28,9c0-2.2,1.8-4.1,4.1-4.1c2.2,0,4.1,1.8,4.1,4.1c0,2.2-1.8,4.1-4.1,4.1C29.8,13.1,28,11.2,28,9z"
	/>
</svg>
